<svg xmlns="http://www.w3.org/2000/svg" xmlns:xlink="http://www.w3.org/1999/xlink" id="terminal" width="640" baseProfile="full" version="1.1" viewBox="0 0 640 427"><defs><termtosvg:template_settings xmlns:termtosvg="https://github.com/nbedos/termtosvg"><termtosvg:screen_geometry columns="80" rows="25"/><termtosvg:animation type="css"/></termtosvg:template_settings><style id="generated-style" type="text/css">@keyframes roll{0%{transform:translateY(0)}6.334%{transform:translateY(-442px)}12.668%{transform:translateY(-884px)}14.644%{transform:translateY(-1326px)}20.978%{transform:translateY(-1768px)}27.312%{transform:translateY(-2210px)}28.553%{transform:translateY(-2652px)}34.191%{transform:translateY(-3094px)}35.255%{transform:translateY(-3536px)}41.589%{transform:translateY(-3978px)}46.706%{transform:translateY(-4420px)}49.24%{transform:translateY(-4862px)}55.181%{transform:translateY(-5304px)}61.515%{transform:translateY(-5746px)}61.54%{transform:translateY(-6188px)}61.566%{transform:translateY(-6630px)}61.604%{transform:translateY(-7072px)}61.996%{transform:translateY(-7514px)}68.33%{transform:translateY(-7956px)}74.664%{transform:translateY(-8398px)}80.998%{transform:translateY(-8840px)}87.332%{transform:translateY(-9282px)}}#screen{font-family:&apos;DejaVu Sans Mono&apos;,monospace;font-style:normal;font-size:14px}text{dominant-baseline:text-before-edge;white-space:pre}:root{--animation-duration:7894ms}#screen_view{animation-duration:7894ms;animation-iteration-count:infinite;animation-name:roll;animation-timing-function:steps(1,end);animation-fill-mode:forwards}</style><style id="user-style" type="text/css">.foreground{fill:#ccc}.background{fill:#0c0c0c}.color2{fill:#13a10e}.color4{fill:#0037da}.color6{fill:#3a96dd}.color10{fill:#16c60c}</style></defs><svg id="screen" width="640" height="425" preserveAspectRatio="xMidYMin slice" viewBox="0 0 640 425"><rect width="100%" height="100%" x="0" y="0" class="background"/><defs><g id="g2"><text x="0" class="color6" textLength="400">git clone https://github.com/pyprojectx/PathPicker.git</text></g><g id="g3"><text x="0" class="foreground" textLength="104">cd PathPicker</text></g><g id="g4"><text x="0" class="color6" textLength="152">./pw poetry install</text></g><g id="g5"><text x="0" class="foreground" textLength="600">creating virtual environment for poetry in /venvs/poetry-96698ec8b0-3.9 ...</text></g><g id="g6"><text x="0" class="foreground" textLength="304">installing with pip: poetry==1.1.7 ...</text></g><g id="g7"><text x="0" class="foreground" textLength="160">Creating virtualenv</text><text x="160" class="color6" textLength="200">pathpicker-WG1m1982-py3.9</text></g><g id="g8"><text x="0" class="color4" textLength="304">Installing dependencies from lock file</text></g><g id="g9"><text x="0" class="foreground" font-weight="bold" textLength="80">Installing</text><text x="80" class="foreground" textLength="176">the current project:</text><text x="256" class="color6" textLength="80">pathpicker</text><text x="336" class="foreground" textLength="16">(</text><text x="352" class="foreground" font-weight="bold" textLength="40">0.8.1</text><text x="392" class="foreground" textLength="8">)</text></g><g id="g10"><text x="0" class="foreground" font-weight="bold" textLength="80">Installing</text><text x="80" class="foreground" textLength="176">the current project:</text><text x="256" class="color6" textLength="80">pathpicker</text><text x="336" class="foreground" textLength="16">(</text><text x="352" class="foreground" font-weight="bold" textLength="40">0.8.1</text><text x="392" class="foreground" textLength="8">)</text></g><g id="g11"><text x="0" class="color6" textLength="72">./pw test</text></g><g id="g12"><text x="0" class="foreground" font-weight="bold" textLength="512">========================== test session starts =================</text></g><g id="g13"><text x="0" class="foreground" textLength="568">platform darwin -- Python 3.9.6, pytest-6.2.2, py-1.10.0, pluggy-0.13.1</text></g><g id="g14"><text x="0" class="foreground" textLength="416">rootdir: /Users/ihoubr/tmp/pyprojectx/PathPicker</text></g><g id="g15"><text x="0" class="foreground" font-weight="bold" textLength="120">collecting ...</text></g><g id="g16"><text x="0" class="foreground" font-weight="bold" textLength="640">collected 2 items</text></g><g id="g18"><text x="0" class="foreground" textLength="312">src/tests/test_key_bindings_parsing.py</text></g><g id="g19"><text x="0" class="foreground" textLength="312">src/tests/test_key_bindings_parsing.py</text><text x="312" class="color2" textLength="8">.</text></g><g id="g20"><text x="0" class="foreground" textLength="312">src/tests/test_key_bindings_parsing.py</text><text x="312" class="color2" textLength="328">..</text></g><g id="g21"><text x="0" class="color2" textLength="520">[100%]</text></g><g id="g22"><text x="0" class="color2" textLength="520">[100%]</text></g><g id="g23"><text x="0" class="color2" textLength="128">===============</text><text x="128" class="color10" font-weight="bold" textLength="64">2 passed</text><text x="192" class="color2" textLength="304">in 0.10s ============================</text></g><g id="g24"><text x="0" class="foreground" textLength="192">🎉🎉🎉🎉🎉🎉🎉🎉🎉🎉🎉🎉</text></g></defs><g id="screen_view"><g><rect width="8" height="17" x="0" y="0" class="foreground"/><use y="0" xlink:href="#g1"/></g><g><use y="442" xlink:href="#g2"/><rect width="8" height="17" x="0" y="459" class="foreground"/><use y="459" xlink:href="#g1"/></g><g><use y="884" xlink:href="#g2"/><use y="901" xlink:href="#g3"/><rect width="8" height="17" x="0" y="918" class="foreground"/><use y="918" xlink:href="#g1"/></g><g><use y="1326" xlink:href="#g2"/><use y="1343" xlink:href="#g3"/><rect width="8" height="17" x="0" y="1377" class="foreground"/><use y="1377" xlink:href="#g1"/></g><g><use y="1768" xlink:href="#g2"/><use y="1785" xlink:href="#g3"/><use y="1819" xlink:href="#g4"/><rect width="8" height="17" x="0" y="1836" class="foreground"/><use y="1836" xlink:href="#g1"/></g><g><use y="2210" xlink:href="#g2"/><use y="2227" xlink:href="#g3"/><use y="2261" xlink:href="#g4"/><use y="2278" xlink:href="#g5"/><rect width="8" height="17" x="0" y="2295" class="foreground"/><use y="2295" xlink:href="#g1"/></g><g><use y="2652" xlink:href="#g2"/><use y="2669" xlink:href="#g3"/><use y="2703" xlink:href="#g4"/><use y="2720" xlink:href="#g5"/><use y="2737" xlink:href="#g6"/><rect width="8" height="17" x="0" y="2754" class="foreground"/><use y="2754" xlink:href="#g1"/></g><g><use y="3094" xlink:href="#g2"/><use y="3111" xlink:href="#g3"/><use y="3145" xlink:href="#g4"/><use y="3162" xlink:href="#g5"/><use y="3179" xlink:href="#g6"/><use y="3196" xlink:href="#g7"/><rect width="8" height="17" x="0" y="3213" class="foreground"/><use y="3213" xlink:href="#g1"/></g><g><use y="3536" xlink:href="#g2"/><use y="3553" xlink:href="#g3"/><use y="3587" xlink:href="#g4"/><use y="3604" xlink:href="#g5"/><use y="3621" xlink:href="#g6"/><use y="3638" xlink:href="#g7"/><use y="3655" xlink:href="#g8"/><rect width="8" height="17" x="0" y="3672" class="foreground"/><use y="3672" xlink:href="#g1"/></g><g><use y="3978" xlink:href="#g2"/><use y="3995" xlink:href="#g3"/><use y="4029" xlink:href="#g4"/><use y="4046" xlink:href="#g5"/><use y="4063" xlink:href="#g6"/><use y="4080" xlink:href="#g7"/><use y="4097" xlink:href="#g8"/><rect width="8" height="17" x="400" y="4114" class="foreground"/><use y="4114" xlink:href="#g9"/></g><g><use y="4420" xlink:href="#g2"/><use y="4437" xlink:href="#g3"/><use y="4471" xlink:href="#g4"/><use y="4488" xlink:href="#g5"/><use y="4505" xlink:href="#g6"/><use y="4522" xlink:href="#g7"/><use y="4539" xlink:href="#g8"/><use y="4556" xlink:href="#g10"/><rect width="8" height="17" x="0" y="4573" class="foreground"/><use y="4573" xlink:href="#g1"/></g><g><use y="4862" xlink:href="#g2"/><use y="4879" xlink:href="#g3"/><use y="4913" xlink:href="#g4"/><use y="4930" xlink:href="#g5"/><use y="4947" xlink:href="#g6"/><use y="4964" xlink:href="#g7"/><use y="4981" xlink:href="#g8"/><use y="4998" xlink:href="#g10"/><rect width="8" height="17" x="0" y="5032" class="foreground"/><use y="5032" xlink:href="#g1"/></g><g><use y="5304" xlink:href="#g2"/><use y="5321" xlink:href="#g3"/><use y="5355" xlink:href="#g4"/><use y="5372" xlink:href="#g5"/><use y="5389" xlink:href="#g6"/><use y="5406" xlink:href="#g7"/><use y="5423" xlink:href="#g8"/><use y="5440" xlink:href="#g10"/><use y="5474" xlink:href="#g11"/><use y="5491" xlink:href="#g12"/><use y="5508" xlink:href="#g13"/><use y="5525" xlink:href="#g14"/><rect width="8" height="17" x="120" y="5542" class="foreground"/><use y="5542" xlink:href="#g15"/></g><g><use y="5746" xlink:href="#g2"/><use y="5763" xlink:href="#g3"/><use y="5797" xlink:href="#g4"/><use y="5814" xlink:href="#g5"/><use y="5831" xlink:href="#g6"/><use y="5848" xlink:href="#g7"/><use y="5865" xlink:href="#g8"/><use y="5882" xlink:href="#g10"/><use y="5916" xlink:href="#g11"/><use y="5933" xlink:href="#g12"/><use y="5950" xlink:href="#g13"/><use y="5967" xlink:href="#g14"/><use y="5984" xlink:href="#g16"/><use y="6001" xlink:href="#g17"/><rect width="8" height="17" x="312" y="6018" class="foreground"/><use y="6018" xlink:href="#g18"/></g><g><use y="6188" xlink:href="#g2"/><use y="6205" xlink:href="#g3"/><use y="6239" xlink:href="#g4"/><use y="6256" xlink:href="#g5"/><use y="6273" xlink:href="#g6"/><use y="6290" xlink:href="#g7"/><use y="6307" xlink:href="#g8"/><use y="6324" xlink:href="#g10"/><use y="6358" xlink:href="#g11"/><use y="6375" xlink:href="#g12"/><use y="6392" xlink:href="#g13"/><use y="6409" xlink:href="#g14"/><use y="6426" xlink:href="#g16"/><use y="6443" xlink:href="#g17"/><rect width="8" height="17" x="320" y="6460" class="foreground"/><use y="6460" xlink:href="#g19"/></g><g><use y="6630" xlink:href="#g2"/><use y="6647" xlink:href="#g3"/><use y="6681" xlink:href="#g4"/><use y="6698" xlink:href="#g5"/><use y="6715" xlink:href="#g6"/><use y="6732" xlink:href="#g7"/><use y="6749" xlink:href="#g8"/><use y="6766" xlink:href="#g10"/><use y="6800" xlink:href="#g11"/><use y="6817" xlink:href="#g12"/><use y="6834" xlink:href="#g13"/><use y="6851" xlink:href="#g14"/><use y="6868" xlink:href="#g16"/><use y="6885" xlink:href="#g17"/><use y="6902" xlink:href="#g20"/><rect width="8" height="17" x="520" y="6919" class="foreground"/><use y="6919" xlink:href="#g21"/></g><g><use y="7072" xlink:href="#g2"/><use y="7089" xlink:href="#g3"/><use y="7123" xlink:href="#g4"/><use y="7140" xlink:href="#g5"/><use y="7157" xlink:href="#g6"/><use y="7174" xlink:href="#g7"/><use y="7191" xlink:href="#g8"/><use y="7208" xlink:href="#g10"/><use y="7242" xlink:href="#g11"/><use y="7259" xlink:href="#g12"/><use y="7276" xlink:href="#g13"/><use y="7293" xlink:href="#g14"/><use y="7310" xlink:href="#g16"/><use y="7327" xlink:href="#g17"/><use y="7344" xlink:href="#g20"/><use y="7361" xlink:href="#g22"/><use y="7378" xlink:href="#g23"/><rect width="8" height="17" x="0" y="7395" class="foreground"/><use y="7395" xlink:href="#g1"/></g><g><use y="7514" xlink:href="#g2"/><use y="7531" xlink:href="#g3"/><use y="7565" xlink:href="#g4"/><use y="7582" xlink:href="#g5"/><use y="7599" xlink:href="#g6"/><use y="7616" xlink:href="#g7"/><use y="7633" xlink:href="#g8"/><use y="7650" xlink:href="#g10"/><use y="7684" xlink:href="#g11"/><use y="7701" xlink:href="#g12"/><use y="7718" xlink:href="#g13"/><use y="7735" xlink:href="#g14"/><use y="7752" xlink:href="#g16"/><use y="7769" xlink:href="#g17"/><use y="7786" xlink:href="#g20"/><use y="7803" xlink:href="#g22"/><use y="7820" xlink:href="#g23"/><use y="7837" xlink:href="#g24"/><rect width="8" height="17" x="0" y="7854" class="foreground"/><use y="7854" xlink:href="#g1"/></g><g><use y="7956" xlink:href="#g2"/><use y="7973" xlink:href="#g3"/><use y="8007" xlink:href="#g4"/><use y="8024" xlink:href="#g5"/><use y="8041" xlink:href="#g6"/><use y="8058" xlink:href="#g7"/><use y="8075" xlink:href="#g8"/><use y="8092" xlink:href="#g10"/><use y="8126" xlink:href="#g11"/><use y="8143" xlink:href="#g12"/><use y="8160" xlink:href="#g13"/><use y="8177" xlink:href="#g14"/><use y="8194" xlink:href="#g16"/><use y="8211" xlink:href="#g17"/><use y="8228" xlink:href="#g20"/><use y="8245" xlink:href="#g22"/><use y="8262" xlink:href="#g23"/><use y="8279" xlink:href="#g24"/><rect width="8" height="17" x="0" y="8296" class="foreground"/><use y="8296" xlink:href="#g1"/></g><g><use y="8398" xlink:href="#g2"/><use y="8415" xlink:href="#g3"/><use y="8449" xlink:href="#g4"/><use y="8466" xlink:href="#g5"/><use y="8483" xlink:href="#g6"/><use y="8500" xlink:href="#g7"/><use y="8517" xlink:href="#g8"/><use y="8534" xlink:href="#g10"/><use y="8568" xlink:href="#g11"/><use y="8585" xlink:href="#g12"/><use y="8602" xlink:href="#g13"/><use y="8619" xlink:href="#g14"/><use y="8636" xlink:href="#g16"/><use y="8653" xlink:href="#g17"/><use y="8670" xlink:href="#g20"/><use y="8687" xlink:href="#g22"/><use y="8704" xlink:href="#g23"/><use y="8721" xlink:href="#g24"/><rect width="8" height="17" x="0" y="8738" class="foreground"/><use y="8738" xlink:href="#g1"/></g><g><use y="8840" xlink:href="#g2"/><use y="8857" xlink:href="#g3"/><use y="8891" xlink:href="#g4"/><use y="8908" xlink:href="#g5"/><use y="8925" xlink:href="#g6"/><use y="8942" xlink:href="#g7"/><use y="8959" xlink:href="#g8"/><use y="8976" xlink:href="#g10"/><use y="9010" xlink:href="#g11"/><use y="9027" xlink:href="#g12"/><use y="9044" xlink:href="#g13"/><use y="9061" xlink:href="#g14"/><use y="9078" xlink:href="#g16"/><use y="9095" xlink:href="#g17"/><use y="9112" xlink:href="#g20"/><use y="9129" xlink:href="#g22"/><use y="9146" xlink:href="#g23"/><use y="9163" xlink:href="#g24"/><rect width="8" height="17" x="0" y="9180" class="foreground"/><use y="9180" xlink:href="#g1"/></g><g><use y="9282" xlink:href="#g2"/><use y="9299" xlink:href="#g3"/><use y="9333" xlink:href="#g4"/><use y="9350" xlink:href="#g5"/><use y="9367" xlink:href="#g6"/><use y="9384" xlink:href="#g7"/><use y="9401" xlink:href="#g8"/><use y="9418" xlink:href="#g10"/><use y="9452" xlink:href="#g11"/><use y="9469" xlink:href="#g12"/><use y="9486" xlink:href="#g13"/><use y="9503" xlink:href="#g14"/><use y="9520" xlink:href="#g16"/><use y="9537" xlink:href="#g17"/><use y="9554" xlink:href="#g20"/><use y="9571" xlink:href="#g22"/><use y="9588" xlink:href="#g23"/><use y="9605" xlink:href="#g24"/><rect width="8" height="17" x="0" y="9622" class="foreground"/><use y="9622" xlink:href="#g1"/></g></g></svg></svg>